<svg xmlns="http://www.w3.org/2000/svg" width="900" height="360" viewBox="0 0 900 360" role="img" aria-label="Robustness surface"><rect width="100%" height="100%" fill="#ffffff"/><line x1="46" x2="854" y1="93.53" y2="93.53" stroke="#555" stroke-dasharray="4 4"/><text x="46" y="24" font-family="Arial" font-size="14" fill="#111">SpecCurve robustness surface (raw re78 scale)</text><text x="46" y="346" font-family="Arial" font-size="11" fill="#555">-13104.3</text><text x="802" y="46" font-family="Arial" font-size="11" fill="#555">2824.8</text><circle cx="46.00" cy="260.26" r="4" fill="#b42318"><title>S001: -9910.07</title></circle><circle cx="52.79" cy="147.84" r="4" fill="#b42318"><title>S004: -3228.01</title></circle><circle cx="59.58" cy="147.58" r="4" fill="#b42318"><title>S007: -3212.76</title></circle><circle cx="66.37" cy="288.42" r="4" fill="#b42318"><title>S011: -11583.94</title></circle><circle cx="73.16" cy="290.90" r="4" fill="#b42318"><title>S014: -11731.53</title></circle><circle cx="79.95" cy="252.29" r="4" fill="#b42318"><title>S017: -9436.57</title></circle><circle cx="86.74" cy="121.94" r="4" fill="#b42318"><title>S020: -1688.66</title></circle><circle cx="93.53" cy="121.56" r="4" fill="#b42318"><title>S023: -1665.95</title></circle><circle cx="100.32" cy="246.41" r="4" fill="#b42318"><title>S027: -9087.20</title></circle><circle cx="107.11" cy="248.30" r="4" fill="#b42318"><title>S030: -9199.28</title></circle><circle cx="113.90" cy="249.81" r="4" fill="#b42318"><title>S033: -9288.70</title></circle><circle cx="120.69" cy="171.31" r="4" fill="#b42318"><title>S036: -4623.15</title></circle><circle cx="127.48" cy="171.31" r="4" fill="#b42318"><title>S040: -4623.15</title></circle><circle cx="134.27" cy="314.00" r="4" fill="#b42318"><title>S043: -13104.25</title></circle><circle cx="141.06" cy="313.89" r="4" fill="#b42318"><title>S046: -13097.81</title></circle><circle cx="147.85" cy="259.43" r="4" fill="#b42318"><title>S049: -9860.71</title></circle><circle cx="154.64" cy="142.93" r="4" fill="#b42318"><title>S052: -2936.11</title></circle><circle cx="161.43" cy="145.77" r="4" fill="#b42318"><title>S056: -3105.44</title></circle><circle cx="168.22" cy="277.26" r="4" fill="#b42318"><title>S059: -10920.67</title></circle><circle cx="175.01" cy="278.99" r="4" fill="#b42318"><title>S062: -11023.09</title></circle><circle cx="181.80" cy="235.73" r="4" fill="#b42318"><title>S129: -8452.09</title></circle><circle cx="188.59" cy="141.19" r="4" fill="#b42318"><title>S133: -2833.18</title></circle><circle cx="195.38" cy="151.24" r="4" fill="#b42318"><title>S136: -3430.04</title></circle><circle cx="202.17" cy="265.90" r="4" fill="#b42318"><title>S139: -10245.58</title></circle><circle cx="208.96" cy="269.19" r="4" fill="#b42318"><title>S142: -10441.02</title></circle><circle cx="215.75" cy="240.45" r="4" fill="#b42318"><title>S145: -8732.62</title></circle><circle cx="222.54" cy="152.61" r="4" fill="#b42318"><title>S149: -3511.45</title></circle><circle cx="229.33" cy="144.53" r="4" fill="#b42318"><title>S152: -3031.54</title></circle><circle cx="236.12" cy="225.81" r="4" fill="#b42318"><title>S155: -7862.32</title></circle><circle cx="242.91" cy="228.63" r="4" fill="#b42318"><title>S158: -8029.90</title></circle><circle cx="249.70" cy="222.93" r="4" fill="#b42318"><title>S161: -7691.15</title></circle><circle cx="256.49" cy="138.27" r="4" fill="#b42318"><title>S165: -2659.57</title></circle><circle cx="263.28" cy="133.12" r="4" fill="#b42318"><title>S168: -2353.29</title></circle><circle cx="270.07" cy="295.71" r="4" fill="#b42318"><title>S171: -12017.10</title></circle><circle cx="276.86" cy="296.97" r="4" fill="#b42318"><title>S174: -12091.86</title></circle><circle cx="283.65" cy="235.03" r="4" fill="#b42318"><title>S178: -8410.27</title></circle><circle cx="290.44" cy="145.71" r="4" fill="#b42318"><title>S181: -3101.77</title></circle><circle cx="297.23" cy="147.96" r="4" fill="#b42318"><title>S184: -3235.57</title></circle><circle cx="304.02" cy="254.82" r="4" fill="#b42318"><title>S187: -9586.49</title></circle><circle cx="310.81" cy="258.17" r="4" fill="#b42318"><title>S190: -9785.91</title></circle><circle cx="317.60" cy="209.53" r="4" fill="#b42318"><title>S258: -6894.72</title></circle><circle cx="324.39" cy="143.96" r="4" fill="#b42318"><title>S261: -2997.82</title></circle><circle cx="331.18" cy="133.32" r="4" fill="#b42318"><title>S264: -2365.50</title></circle><circle cx="337.97" cy="237.80" r="4" fill="#b42318"><title>S267: -8575.29</title></circle><circle cx="344.76" cy="144.55" r="4" fill="#b42318"><title>S271: -3032.73</title></circle><circle cx="351.55" cy="202.86" r="4" fill="#b42318"><title>S274: -6498.37</title></circle><circle cx="358.34" cy="132.17" r="4" fill="#b42318"><title>S277: -2297.10</title></circle><circle cx="365.13" cy="130.22" r="4" fill="#b42318"><title>S280: -2181.18</title></circle><circle cx="371.92" cy="194.97" r="4" fill="#b42318"><title>S283: -6029.26</title></circle><circle cx="378.71" cy="136.15" r="4" fill="#b42318"><title>S287: -2533.12</title></circle><circle cx="385.50" cy="204.38" r="4" fill="#b42318"><title>S290: -6588.78</title></circle><circle cx="392.29" cy="123.54" r="4" fill="#b42318"><title>S293: -1783.82</title></circle><circle cx="399.08" cy="119.29" r="4" fill="#b42318"><title>S296: -1531.05</title></circle><circle cx="405.87" cy="278.75" r="4" fill="#b42318"><title>S299: -11009.40</title></circle><circle cx="412.66" cy="122.49" r="4" fill="#b42318"><title>S303: -1721.27</title></circle><circle cx="419.45" cy="207.80" r="4" fill="#b42318"><title>S306: -6791.80</title></circle><circle cx="426.24" cy="132.77" r="4" fill="#b42318"><title>S309: -2332.75</title></circle><circle cx="433.03" cy="136.09" r="4" fill="#b42318"><title>S312: -2529.96</title></circle><circle cx="439.82" cy="220.94" r="4" fill="#b42318"><title>S316: -7572.95</title></circle><circle cx="446.61" cy="147.17" r="4" fill="#b42318"><title>S319: -3188.51</title></circle><circle cx="453.39" cy="193.26" r="4" fill="#b42318"><title>S386: -5928.11</title></circle><circle cx="460.18" cy="135.14" r="4" fill="#b42318"><title>S389: -2473.56</title></circle><circle cx="466.97" cy="201.56" r="4" fill="#b42318"><title>S393: -6421.33</title></circle><circle cx="473.76" cy="210.10" r="4" fill="#b42318"><title>S396: -6928.87</title></circle><circle cx="480.55" cy="143.91" r="4" fill="#b42318"><title>S399: -2994.83</title></circle><circle cx="487.34" cy="197.17" r="4" fill="#b42318"><title>S402: -6160.20</title></circle><circle cx="494.13" cy="122.84" r="4" fill="#b42318"><title>S405: -1742.22</title></circle><circle cx="500.92" cy="174.21" r="4" fill="#b42318"><title>S409: -4795.45</title></circle><circle cx="507.71" cy="179.52" r="4" fill="#b42318"><title>S412: -5111.10</title></circle><circle cx="514.50" cy="141.87" r="4" fill="#b42318"><title>S415: -2873.59</title></circle><circle cx="521.29" cy="186.33" r="4" fill="#b42318"><title>S418: -5515.99</title></circle><circle cx="528.08" cy="133.84" r="4" fill="#b42318"><title>S421: -2395.97</title></circle><circle cx="534.87" cy="227.98" r="4" fill="#b42318"><title>S425: -7991.22</title></circle><circle cx="541.66" cy="232.65" r="4" fill="#b42318"><title>S428: -8269.31</title></circle><circle cx="548.45" cy="142.94" r="4" fill="#b42318"><title>S431: -2936.72</title></circle><circle cx="555.24" cy="192.53" r="4" fill="#b42318"><title>S434: -5884.18</title></circle><circle cx="562.03" cy="154.87" r="4" fill="#b42318"><title>S437: -3646.27</title></circle><circle cx="568.82" cy="196.64" r="4" fill="#b42318"><title>S441: -6128.48</title></circle><circle cx="575.61" cy="203.14" r="4" fill="#b42318"><title>S444: -6514.98</title></circle><circle cx="582.40" cy="147.54" r="4" fill="#b42318"><title>S447: -3210.19</title></circle><circle cx="589.19" cy="106.85" r="4" fill="#b42318"><title>S514: -791.67</title></circle><circle cx="595.98" cy="135.07" r="4" fill="#b42318"><title>S518: -2469.17</title></circle><circle cx="602.77" cy="134.87" r="4" fill="#b42318"><title>S521: -2457.34</title></circle><circle cx="609.56" cy="136.42" r="4" fill="#b42318"><title>S524: -2549.27</title></circle><circle cx="616.35" cy="92.89" r="4" fill="#1f7a4d"><title>S527: 37.72</title></circle><circle cx="623.14" cy="80.78" r="4" fill="#1f7a4d"><title>S531: 757.35</title></circle><circle cx="629.93" cy="93.95" r="4" fill="#b42318"><title>S534: -25.18</title></circle><circle cx="636.72" cy="114.07" r="4" fill="#b42318"><title>S537: -1221.21</title></circle><circle cx="643.51" cy="114.85" r="4" fill="#b42318"><title>S540: -1267.35</title></circle><circle cx="650.30" cy="90.62" r="4" fill="#1f7a4d"><title>S543: 172.55</title></circle><circle cx="657.09" cy="102.48" r="4" fill="#b42318"><title>S547: -531.97</title></circle><circle cx="663.88" cy="136.61" r="4" fill="#b42318"><title>S550: -2560.50</title></circle><circle cx="670.67" cy="216.31" r="4" fill="#b42318"><title>S553: -7297.98</title></circle><circle cx="677.46" cy="223.68" r="4" fill="#b42318"><title>S556: -7735.65</title></circle><circle cx="684.25" cy="102.97" r="4" fill="#b42318"><title>S559: -561.43</title></circle><circle cx="691.04" cy="110.20" r="4" fill="#b42318"><title>S563: -990.73</title></circle><circle cx="697.83" cy="131.98" r="4" fill="#b42318"><title>S566: -2285.72</title></circle><circle cx="704.62" cy="128.61" r="4" fill="#b42318"><title>S569: -2085.28</title></circle><circle cx="711.41" cy="131.34" r="4" fill="#b42318"><title>S572: -2247.77</title></circle><circle cx="718.20" cy="75.94" r="4" fill="#1f7a4d"><title>S575: 1045.45</title></circle><circle cx="724.99" cy="65.59" r="4" fill="#1f7a4d"><title>S643: 1660.60</title></circle><circle cx="731.78" cy="48.79" r="4" fill="#1f7a4d"><title>S646: 2658.80</title></circle><circle cx="738.57" cy="112.43" r="4" fill="#b42318"><title>S649: -1123.51</title></circle><circle cx="745.36" cy="126.17" r="4" fill="#b42318"><title>S652: -1940.33</title></circle><circle cx="752.15" cy="87.84" r="4" fill="#1f7a4d"><title>S656: 337.91</title></circle><circle cx="758.94" cy="54.84" r="4" fill="#1f7a4d"><title>S659: 2299.13</title></circle><circle cx="765.73" cy="59.07" r="4" fill="#1f7a4d"><title>S662: 2048.07</title></circle><circle cx="772.52" cy="82.49" r="4" fill="#1f7a4d"><title>S665: 655.69</title></circle><circle cx="779.31" cy="91.26" r="4" fill="#1f7a4d"><title>S669: 134.75</title></circle><circle cx="786.10" cy="86.40" r="4" fill="#1f7a4d"><title>S672: 423.57</title></circle><circle cx="792.89" cy="133.54" r="4" fill="#b42318"><title>S675: -2377.98</title></circle><circle cx="799.68" cy="156.43" r="4" fill="#b42318"><title>S678: -3738.89</title></circle><circle cx="806.47" cy="183.67" r="4" fill="#b42318"><title>S681: -5358.10</title></circle><circle cx="813.26" cy="181.95" r="4" fill="#b42318"><title>S685: -5255.42</title></circle><circle cx="820.05" cy="148.35" r="4" fill="#b42318"><title>S688: -3258.46</title></circle><circle cx="826.84" cy="46.00" r="4" fill="#1f7a4d"><title>S691: 2824.82</title></circle><circle cx="833.63" cy="65.23" r="4" fill="#1f7a4d"><title>S694: 1681.64</title></circle><circle cx="840.42" cy="102.40" r="4" fill="#b42318"><title>S697: -527.54</title></circle><circle cx="847.21" cy="102.47" r="4" fill="#b42318"><title>S701: -531.64</title></circle><circle cx="854.00" cy="93.78" r="4" fill="#b42318"><title>S704: -14.84</title></circle></svg>